:FULLY-SPECIFIED
:FORCE-ALL-JOINTS-BE-3DOF
:DEGREES
34
root 5.98366 16.9004 -28.0767 9.9838 -1.85966 -2.26634
lfemur -20.0918 1.62947 -19.7729
ltibia 33.7716 0 0
lfoot -36.0166 4.26286 0
ltoes 36.2062 0 0
rfemur -16.8092 7.35119 19.5674
rtibia 30.5678 0 0
rfoot -27.4037 -19.1081 0
rtoes 14.8804 0 0
lowerback -5.45132 2.55239 -0.990197
upperback -1.91342 3.44112 0.844034
thorax 0.972287 1.72588 1.62999
lowerneck -9.54922 -1.65176 2.6676
upperneck -2.59509 -2.46709 0.734476
head 0.756022 -1.23674 -0.301071
lclavicle -2.62815e-14 -3.37934e-15 0
lhumerus -41.5172 -12.7219 97.0782
lradius 38.759 0 0
lwrist 5.65684 0 0
lhand -11.2797 5.79832 0
lfingers 7.12502 0 0
lthumb 14.751 35.2531 0
rclavicle -2.62815e-14 -3.37934e-15 0
rhumerus -40.6433 -5.08353 -88.6508
rradius 39.1398 0 0
rwrist 11.0917 0 0
rhand -26.8347 -19.9468 0
rfingers 7.12502 0 0
rthumb -0.260423 -49.9264 0
35
root 5.97603 16.9011 -28.0773 10.0015 -1.85509 -2.21889
lfemur -20.096 1.63586 -19.7942
ltibia 33.7402 0 0
lfoot -35.9251 4.2643 0
ltoes 36.0293 0 0
rfemur -16.809 7.3439 19.5412
rtibia 30.5388 0 0
rfoot -27.3421 -19.1431 0
rtoes 14.5713 0 0
lowerback -5.50371 2.53057 -0.9108
upperback -1.88587 3.40921 0.755724
thorax 1.04107 1.70859 1.49704
lowerneck -9.5346 -1.63198 2.70695
upperneck -2.65546 -2.4439 0.796389
head 0.734794 -1.22522 -0.286928
lclavicle -1.62406e-14 -2.32394e-15 0
lhumerus -41.5011 -12.793 97.0251
lradius 38.9922 0 0
lwrist 5.81932 0 0
lhand -11.4086 5.49334 0
lfingers 7.12502 0 0
lthumb 14.6268 34.9572 0
rclavicle -1.62406e-14 -2.32394e-15 0
rhumerus -40.5708 -5.07809 -88.781
rradius 39.0857 0 0
rwrist 11.1367 0 0
rhand -26.8182 -19.9405 0
rfingers 7.12502 0 0
rthumb -0.244515 -49.9202 0
36
root 5.96864 16.9017 -28.0778 10.0186 -1.85067 -2.17295
lfemur -20.1002 1.64204 -19.8147
ltibia 33.7098 0 0
lfoot -35.8365 4.26569 0
ltoes 35.858 0 0
rfemur -16.8088 7.33685 19.5159
rtibia 30.5107 0 0
rfoot -27.2825 -19.177 0
rtoes 14.272 0 0
lowerback -5.55442 2.50945 -0.833938
upperback -1.85919 3.37831 0.670233
thorax 1.10765 1.69185 1.36834
lowerneck -9.52044 -1.61283 2.74505
upperneck -2.71391 -2.42146 0.856326
head 0.714244 -1.21406 -0.273237
lclavicle -6.52018e-15 -1.30222e-15 0
lhumerus -41.4855 -12.8617 96.9738
lradius 39.2179 0 0
lwrist 5.97662 0 0
lhand -11.5334 5.19808 0
lfingers 7.12502 0 0
lthumb 14.5066 34.6708 0
rclavicle -6.52018e-15 -1.30222e-15 0
rhumerus -40.5007 -5.07282 -88.9072
rradius 39.0333 0 0
rwrist 11.1802 0 0
rhand -26.8023 -19.9345 0
rfingers 7.12502 0 0
rthumb -0.229116 -49.9141 0
37
root 5.96174 16.9023 -28.0784 10.0346 -1.84653 -2.13005
lfemur -20.1041 1.64782 -19.8339
ltibia 33.6814 0 0
lfoot -35.7538 4.26699 0
ltoes 35.698 0 0
rfemur -16.8087 7.33026 19.4922
rtibia 30.4844 0 0
rfoot -27.2268 -19.2086 0
rtoes 13.9925 0 0
lowerback -5.60179 2.48972 -0.762143
upperback -1.83428 3.34945 0.590378
thorax 1.16985 1.67621 1.24812
lowerneck -9.50721 -1.59494 2.78063
upperneck -2.76851 -2.40049 0.912311
head 0.695049 -1.20363 -0.260448
lclavicle 2.55935e-15 -3.47873e-16 0
lhumerus -41.471 -12.9259 96.9258
lradius 39.4288 0 0
lwrist 6.12354 0 0
lhand -11.6499 4.9223 0
lfingers 7.12502 0 0
lthumb 14.3944 34.4032 0
rclavicle 2.55935e-15 -3.47873e-16 0
rhumerus -40.4352 -5.0679 -89.025
rradius 38.9843 0 0
rwrist 11.2209 0 0
rhand -26.7874 -19.9288 0
rfingers 7.12502 0 0
rthumb -0.214731 -49.9085 0
38
root 5.95519 16.9017 -28.0794 10.0617 -1.79643 -2.10573
lfemur -20.1567 1.59921 -19.8296
ltibia 33.7158 0 0
lfoot -35.6685 4.25725 0
ltoes 35.621 0 0
rfemur -16.8271 7.14694 19.488
rtibia 30.4676 0 0
rfoot -27.2134 -19.1234 0
rtoes 13.4478 0 0
lowerback -5.63077 2.45586 -0.658555
upperback -1.8181 3.2999 0.509489
thorax 1.21371 1.65098 1.1062
lowerneck -9.50715 -1.58244 2.81136
upperneck -2.80594 -2.38656 0.968587
head 0.683542 -1.1966 -0.247389
lclavicle 1.74972e-15 6.7688e-16 0
lhumerus -41.4608 -12.9603 96.8359
lradius 39.5887 0 0
lwrist 6.21704 0 0
lhand -11.6849 4.67608 0
lfingers 7.12502 0 0
lthumb 14.3606 34.1594 0
rclavicle 1.74972e-15 6.7688e-16 0
rhumerus -40.3956 -5.05878 -89.1604
rradius 38.9784 0 0
rwrist 11.16 0 0
rhand -26.772 -20.0041 0
rfingers 7.12502 0 0
rthumb -0.199826 -49.9838 0
39
root 5.94817 16.9011 -28.0805 10.0907 -1.7428 -2.07969
lfemur -20.2129 1.54717 -19.825
ltibia 33.7526 0 0
lfoot -35.5771 4.24682 0
ltoes 35.5386 0 0
rfemur -16.8467 6.95069 19.4835
rtibia 30.4497 0 0
rfoot -27.1991 -19.0322 0
rtoes 12.8646 0 0
lowerback -5.66179 2.4196 -0.547654
upperback -1.80078 3.24685 0.42289
thorax 1.26067 1.62397 0.954257
lowerneck -9.50708 -1.56906 2.84425
upperneck -2.84601 -2.37166 1.02884
head 0.671223 -1.18908 -0.233408
lclavicle 8.82934e-16 1.77397e-15 0
lhumerus -41.4499 -12.9971 96.7397
lradius 39.7599 0 0
lwrist 6.31714 0 0
lhand -11.7225 4.41248 0
lfingers 7.12502 0 0
lthumb 14.3245 33.8983 0
rclavicle 8.82934e-16 1.77397e-15 0
rhumerus -40.3532 -5.04902 -89.3055
rradius 38.972 0 0
rwrist 11.0947 0 0
rhand -26.7554 -20.0848 0
rfingers 7.12502 0 0
rthumb -0.18387 -50.0645 0
40
root 5.94093 16.9005 -28.0816 10.1206 -1.68739 -2.0528
lfemur -20.271 1.49341 -19.8202
ltibia 33.7907 0 0
lfoot -35.4827 4.23604 0
ltoes 35.4534 0 0
rfemur -16.867 6.74796 19.4789
rtibia 30.4311 0 0
rfoot -27.1842 -18.9381 0
rtoes 12.2622 0 0
lowerback -5.69383 2.38216 -0.433098
upperback -1.78289 3.19205 0.333437
thorax 1.30917 1.59608 0.797307
lowerneck -9.50702 -1.55524 2.87824
upperneck -2.8874 -2.35625 1.09107
head 0.658498 -1.18131 -0.218966
lclavicle -1.2425e-17 2.90722e-15 0
lhumerus -41.4386 -13.0351 96.6403
lradius 39.9368 0 0
lwrist 6.42055 0 0
lhand -11.7612 4.14019 0
lfingers 7.12502 0 0
lthumb 14.2872 33.6287 0
rclavicle -1.2425e-17 2.90722e-15 0
rhumerus -40.3094 -5.03893 -89.4552
rradius 38.9655 0 0
rwrist 11.0273 0 0
rhand -26.7384 -20.1681 0
rfingers 7.12502 0 0
rthumb -0.167387 -50.1478 0
41
root 5.93369 16.8999 -28.0827 10.1505 -1.63199 -2.02591
lfemur -20.3292 1.43965 -19.8154
ltibia 33.8288 0 0
lfoot -35.3883 4.22526 0
ltoes 35.3682 0 0
rfemur -16.8873 6.54523 19.4743
rtibia 30.4125 0 0
rfoot -27.1694 -18.8439 0
rtoes 11.6597 0 0
lowerback -5.72587 2.34471 -0.318541
upperback -1.76501 3.13725 0.243983
thorax 1.35767 1.56818 0.640358
lowerneck -9.50695 -1.54142 2.91222
upperneck -2.92879 -2.34085 1.15331
head 0.645772 -1.17355 -0.204523
lclavicle -9.07784e-16 4.04048e-15 0
lhumerus -41.4274 -13.0732 96.5409
lradius 40.1137 0 0
lwrist 6.52395 0 0
lhand -11.7999 3.8679 0
lfingers 7.12502 0 0
lthumb 14.2498 33.359 0
rclavicle -9.07784e-16 4.04048e-15 0
rhumerus -40.2655 -5.02885 -89.605
rradius 38.959 0 0
rwrist 10.9599 0 0
rhand -26.7213 -20.2514 0
rfingers 7.12502 0 0
rthumb -0.150904 -50.2311 0
